<svg width="99" height="99" viewBox="0 0 99 99" fill="none" xmlns="http://www.w3.org/2000/svg">
<path d="M3.11328 83.817C13.0243 86.1246 22.9355 86.0399 32.8465 85.1025V85.0743C53.4875 82.9661 74.1284 76.8132 94.7695 81.7777C96.6923 82.2402 98.5398 80.7767 98.5398 78.799V18.1818C98.5398 18.0596 98.5301 17.9395 98.516 17.8206C98.0433 16.5703 96.9369 15.4823 95.6475 15.1834C76.8049 10.7964 57.962 15.0499 39.1193 17.3875C37.0285 17.6682 34.9377 17.9236 32.8469 18.1373V18.0793C22.9359 19.0167 13.0247 19.1014 3.11367 16.7938C1.39393 16.3951 0 17.3813 0 19.1018V79.8986C0 81.6168 1.39393 83.4185 3.11328 83.817Z" fill="#0B67B2"/>
<path d="M98.5396 17.8921C98.0825 16.6123 96.9613 15.4877 95.6472 15.1832C85.6625 12.8586 75.6778 12.9615 65.6931 13.9186V80.942C75.6778 79.9848 85.6625 79.882 95.6472 82.2065C96.9611 82.5111 98.0825 82.0053 98.5396 80.983V17.8921Z" fill="#FF473E"/>
<path d="M32.8462 85.102C43.795 84.0664 54.7439 81.991 65.6927 80.9415V13.9181C54.7439 14.9676 43.795 17.043 32.8462 18.0786V85.102Z" fill="#E8E8E8"/>
</svg>
