<svg width="99" height="99" viewBox="0 0 99 99" fill="none" xmlns="http://www.w3.org/2000/svg">
<g clip-path="url(#clip0)">
<path d="M25.0592 89.8734H47.0248V64.5046H15.9326C15.9326 64.5046 14.8498 73.3218 14.8498 76.4156C14.3857 89.7187 25.0592 89.8734 25.0592 89.8734" fill="#68963B"/>
<path d="M30.1641 53.8313L40.2188 59.7094L26.9156 36.1969L0 36.3516L10.0547 42.2297L2.01094 56.1516C1.2375 57.5438 0.309375 59.8641 1.54688 61.875L15.3141 85.5422C17.7891 89.8735 22.1203 89.7188 25.2141 89.7188C25.2141 89.7188 11.1375 86.7797 20.1094 71.311L30.1641 53.8313Z" fill="#83BF4F"/>
<path d="M96.6799 50.5828L85.6971 31.5563L63.7314 44.2406L79.2002 71.1563C79.2002 71.1563 87.3986 67.5985 90.0283 66.2063C101.785 59.8641 96.6799 50.5828 96.6799 50.5828" fill="#68963B"/>
<path d="M62.8033 64.1953V52.5937L49.0361 75.7968L62.8033 99V87.3984H78.8908C80.5924 87.3984 82.9127 86.9343 84.1502 84.9234L97.9174 61.2562C100.392 56.9249 98.2268 53.3671 96.6799 50.5828C96.6799 50.5828 101.166 64.1953 83.2221 64.1953H62.8033Z" fill="#83BF4F"/>
<path d="M27.8437 6.34222L16.8608 25.3688L38.8265 38.0532L54.2952 11.1375C54.2952 11.1375 47.1796 5.72347 44.5499 4.17659C33.4124 -2.62966 27.8437 6.34222 27.8437 6.34222Z" fill="#68963B"/>
<path d="M56.6156 28.9266L46.5609 34.8047L73.4766 35.1141L86.7797 11.6016L76.725 17.4797L68.6813 3.55781C67.7531 1.85625 66.2062 0 63.8859 0H36.5063C31.5563 0 29.3906 3.7125 27.8438 6.34219C27.8438 6.34219 37.4344 -4.33125 46.4062 11.1375L56.6156 28.9266Z" fill="#83BF4F"/>
</g>
<defs>
<clipPath id="clip0">
<rect width="99" height="99" fill="white"/>
</clipPath>
</defs>
</svg>
