<svg width="99" height="99" viewBox="0 0 99 99" fill="none" xmlns="http://www.w3.org/2000/svg">
<path d="M43.7535 61.7744C42.9955 61.7899 42.4154 62.1457 42.4386 62.5711C42.6706 66.7322 43.6297 86.7178 40.8995 90.7474C39.7471 92.449 38.0455 93.7019 36.6069 94.5372C35.7716 95.0245 36.4058 95.8366 37.6124 95.8366H61.3878C62.6485 95.8366 63.2441 94.9781 62.3237 94.4986C60.8 93.7097 59.083 92.4722 57.6831 90.554C55.1153 87.0426 55.2081 66.6393 55.2545 62.3004C55.2622 61.8595 54.6048 61.5037 53.8159 61.5269L43.7535 61.7744V61.7744Z" fill="url(#paint0_linear)"/>
<path opacity="0.2" d="M52.4392 64.3655C52.3386 83.7942 53.986 90.2524 55.4246 92.2092C55.6335 92.4954 55.85 92.7661 56.0743 93.0368H42.6939C42.8795 92.8048 43.0496 92.565 43.2198 92.3253C45.8572 88.4271 45.8804 75.503 45.3467 64.5434L52.4392 64.3655V64.3655ZM53.8778 61.527H53.8159L43.7535 61.7822C42.9955 61.7977 42.4154 62.1535 42.4386 62.5789C42.6706 66.7399 43.6297 86.7256 40.8995 90.7552C39.7471 92.4567 38.0455 93.7097 36.6069 94.545C35.7716 95.0323 36.4058 95.8444 37.6124 95.8444H61.3878C62.6485 95.8444 63.2441 94.9859 62.3237 94.5063C60.8 93.7174 59.083 92.4799 57.6831 90.5618C55.1153 87.0504 55.2081 66.6471 55.2545 62.3081C55.2622 61.8673 54.6435 61.527 53.8778 61.527V61.527Z" fill="#424242"/>
<path d="M44.0548 77.3437C36.7149 77.3437 30.3031 72.6412 28.0988 65.6416C28.0248 65.4062 27.8776 65.2006 27.6787 65.0545C27.4798 64.9085 27.2396 64.8297 26.9928 64.8295H26.9C26.4359 64.8682 26.026 64.8837 25.6548 64.8837C16.8453 64.8837 9.67554 57.4664 9.67554 48.3476C9.67554 42.686 12.4367 37.473 17.0619 34.4102C17.5027 34.1163 17.6883 33.5594 17.5182 33.0644C16.9323 31.381 16.6342 29.6108 16.6365 27.8283C16.6365 19.0188 23.8062 11.8491 32.6157 11.8491C33.8919 11.8491 35.1758 12.0037 36.4287 12.3131C36.5215 12.3363 36.6144 12.3441 36.7072 12.3441C37.1016 12.3441 37.4806 12.143 37.6894 11.7949C40.6285 7.06148 45.71 4.23843 51.271 4.23843C58.3248 4.23843 64.636 8.96414 66.6083 15.7395C66.7552 16.2422 67.2115 16.5748 67.722 16.5748C67.7916 16.5748 67.869 16.567 67.9386 16.5516C68.9363 16.3659 69.9418 16.2654 70.9318 16.2654C79.7412 16.2654 86.911 23.4352 86.911 32.2446C86.911 37.0399 84.784 41.5413 81.0793 44.5887C80.824 44.7975 80.6694 45.1146 80.6539 45.4472C80.6462 45.7798 80.7776 46.1046 81.0251 46.3289C82.6375 47.8257 83.9243 49.6386 84.8052 51.6546C85.6861 53.6706 86.1423 55.8464 86.1453 58.0465C86.1453 66.8559 78.9755 74.0257 70.1661 74.0257C66.2293 74.0257 62.4394 72.5794 59.5081 69.9497C59.2915 69.7563 59.0208 69.6558 58.7347 69.6558C58.6883 69.6558 58.6419 69.6558 58.6032 69.6635C58.2706 69.7022 57.9767 69.8801 57.7833 70.1508C56.2454 72.3687 54.1935 74.1813 51.8028 75.4339C49.4121 76.6865 46.7538 77.3418 44.0548 77.3437V77.3437Z" fill="url(#paint1_linear)"/>
<path d="M51.2557 5.41406C57.799 5.41406 63.6462 9.79945 65.4792 16.0798C65.6408 16.6337 66.0027 17.1076 66.4945 17.4093C66.9864 17.7109 67.5729 17.8188 68.1398 17.7117C69.0602 17.5338 69.9961 17.4487 70.9165 17.4487C79.0917 17.4487 85.7355 24.1003 85.7355 32.2678C85.7355 36.7151 83.7633 40.8916 80.3215 43.7147C80.0649 43.9244 79.8567 44.1871 79.7111 44.4848C79.5656 44.7825 79.4862 45.1082 79.4784 45.4395C79.4552 46.1123 79.7259 46.7543 80.2209 47.2106C83.2373 50.0105 84.9698 53.9705 84.9698 58.0774C84.9698 66.2527 78.3183 72.8965 70.1508 72.8965C66.5001 72.8965 62.9887 71.5507 60.2662 69.1144C59.8409 68.7277 59.284 68.5188 58.7194 68.5188C58.6343 68.5188 58.5415 68.5266 58.4487 68.5343C57.7912 68.6116 57.1957 68.9674 56.8167 69.5088C53.9009 73.6854 49.1287 76.1836 44.0473 76.1836C37.2101 76.1836 31.2469 71.8059 29.1973 65.2936C29.0396 64.7925 28.7166 64.3598 28.281 64.0662C27.8455 63.7725 27.3232 63.6354 26.7996 63.6771C26.3665 63.708 25.9875 63.7313 25.6472 63.7313C17.4797 63.7313 10.8281 56.8399 10.8281 48.363C10.8281 43.0882 13.3959 38.2387 17.6962 35.3925C18.1252 35.1085 18.4477 34.69 18.6129 34.2028C18.7781 33.7156 18.7767 33.1873 18.6089 32.7009C18.0675 31.1309 17.7891 29.4989 17.7891 27.8438C17.7891 19.6685 24.4406 13.0247 32.6081 13.0247C33.7915 13.0247 34.9826 13.1716 36.1427 13.4501C36.3284 13.4965 36.514 13.5197 36.6919 13.5197C37.0869 13.5197 37.4754 13.4188 37.8206 13.2266C38.1657 13.0344 38.4561 12.7572 38.6641 12.4214C41.3944 8.03602 46.1046 5.41406 51.2557 5.41406ZM51.2557 3.09375C45.1069 3.09375 39.716 6.33445 36.6919 11.1994C35.3848 10.8823 34.0158 10.7044 32.6081 10.7044C23.1412 10.7044 15.4687 18.3769 15.4687 27.8438C15.4687 29.8083 15.8013 31.6955 16.4123 33.4589C11.6634 36.6068 8.50781 42.0982 8.50781 48.363C8.50781 58.1316 16.1803 66.0593 25.6472 66.0593C26.0958 66.0593 26.5444 66.0361 26.9852 65.9974C29.2669 73.2523 36.0422 78.5116 44.0473 78.5116C50.1265 78.5116 55.4864 75.4798 58.7194 70.8469C61.7512 73.5616 65.7576 75.2168 70.1508 75.2168C79.6176 75.2168 87.2902 67.5443 87.2902 58.0774C87.2902 53.112 85.1709 48.6338 81.7987 45.5091C85.6195 42.3689 88.0559 37.6045 88.0559 32.2678C88.0559 22.8009 80.3834 15.1284 70.9165 15.1284C69.8182 15.1284 68.7509 15.2367 67.7067 15.4301C65.6339 8.29898 59.0597 3.09375 51.2557 3.09375Z" fill="#689F38"/>
<path d="M17.4023 34.2246C17.4023 34.2246 23.2031 29.8778 32.4844 30.3574" stroke="#689F38" stroke-width="0.375" stroke-miterlimit="10" stroke-linecap="round" stroke-linejoin="round"/>
<path d="M34.418 20.4961C34.418 20.4961 34.6732 16.6289 38.0067 11.3772" stroke="#689F38" stroke-width="0.375" stroke-miterlimit="10" stroke-linecap="round" stroke-linejoin="round"/>
<path d="M37.2486 60.9856C37.2486 60.9856 34.2786 63.4683 28.1761 64.6981" stroke="#689F38" stroke-width="0.375" stroke-miterlimit="10" stroke-linecap="round" stroke-linejoin="round"/>
<path d="M51.4487 66.3841C55.2308 68.2558 61.0162 68.1475 64.7751 66.2294" stroke="#689F38" stroke-width="0.375" stroke-miterlimit="10" stroke-linecap="round" stroke-linejoin="round"/>
<path d="M61.5812 47.8603C65.9279 48.7265 71.5431 45.5399 73.0822 41.5181" stroke="#689F38" stroke-width="0.375" stroke-miterlimit="10" stroke-linecap="round" stroke-linejoin="round"/>
<path d="M68.4182 46.2902C72.4942 47.6206 77.6685 46.7775 81.4584 44.2948" stroke="#689F38" stroke-width="0.375" stroke-miterlimit="10" stroke-linecap="round" stroke-linejoin="round"/>
<path d="M30.6823 56.0742C33.5672 59.8177 38.8498 61.5192 43.5677 60.3281" stroke="#689F38" stroke-width="0.375" stroke-miterlimit="10" stroke-linecap="round" stroke-linejoin="round"/>
<defs>
<linearGradient id="paint0_linear" x1="49.5001" y1="93.8411" x2="49.5001" y2="72.2514" gradientUnits="userSpaceOnUse">
<stop offset="0.002" stop-color="#5D4037"/>
<stop offset="1" stop-color="#8D6E63"/>
</linearGradient>
<linearGradient id="paint1_linear" x1="42.6967" y1="32.9546" x2="74.1725" y2="75.332" gradientUnits="userSpaceOnUse">
<stop stop-color="#9CCC65"/>
<stop offset="0.995" stop-color="#689F38"/>
</linearGradient>
</defs>
</svg>
