<svg width="1300" height="37" viewBox="0 0 420 37" fill="none" xmlns="http://www.w3.org/2000/svg">
<path opacity="0.9" d="M419.962 18.695L417.041 21.1521C414.13 23.6092 408.254 28.5234 402.458 29.1346C396.628 29.7458 390.758 26.054 384.962 25.4358C379.133 24.8175 373.259 27.2729 367.465 24.1958C361.638 21.1187 355.77 12.5091 349.976 8.81727C344.149 5.12544 338.276 6.35133 332.478 9.42142C326.647 12.4915 320.771 17.4057 314.972 22.3199C309.14 27.2342 303.264 32.1484 297.467 34.6037C291.636 37.0591 285.763 37.0555 279.968 35.8226C274.14 34.5897 268.268 32.1272 262.475 27.206C256.649 22.2847 250.781 14.9046 244.985 14.9011C239.156 14.8976 233.278 22.2706 227.482 22.8819C221.653 23.4931 215.783 17.3423 209.988 16.1094C204.16 14.8764 198.285 18.5612 192.489 17.943C186.66 17.3248 180.791 12.4035 174.995 10.5558C169.168 8.70814 163.294 9.93403 157.495 14.2336C151.664 18.5331 145.786 25.9061 139.989 27.7468C134.159 29.5874 128.288 25.8956 122.493 24.0479C116.665 22.2002 110.793 22.1967 104.998 20.3491C99.1698 18.5014 93.2992 14.8095 87.503 14.806C81.674 14.8025 75.799 18.4873 70.001 21.5574C64.1701 24.6274 58.2958 27.0828 52.4989 28.3087C46.6691 29.5346 40.7964 29.5311 35.0028 25.2246C29.1764 20.918 23.3089 12.3084 17.5127 12.3049C11.6837 12.3014 5.8057 20.9039 2.95966 25.2052L0.00425163 29.5065L0.0222301 -1.50734e-06L2.94218 0.00176087C5.85121 0.00351666 11.724 0.00706126 17.5202 0.0105597C23.3492 0.0140778 29.222 0.0176224 35.0182 0.0211208C40.8472 0.024639 46.7199 0.0281836 52.5161 0.031682C58.3451 0.0352002 64.2179 0.0387448 70.0141 0.0422431C75.8431 0.0457613 81.7158 0.0493059 87.512 0.0528043C93.341 0.0563225 99.2138 0.0598671 105.01 0.0633655C110.839 0.0668837 116.712 0.0704283 122.508 0.0739266C128.337 0.0774448 134.21 0.0809894 140.006 0.0844878C145.835 0.088006 151.708 0.0915506 157.504 0.095049C163.333 0.0985672 169.206 0.102112 175.002 0.10561C180.831 0.109128 186.704 0.112673 192.5 0.116171C198.329 0.119689 204.202 0.123234 209.998 0.126732C215.827 0.130251 221.7 0.133795 227.496 0.137294C233.325 0.140812 239.197 0.144356 244.994 0.147855C250.823 0.151373 256.695 0.154918 262.492 0.158416C268.321 0.161934 274.193 0.165479 279.99 0.168977C285.819 0.172495 291.691 0.17604 297.488 0.179538C303.317 0.183056 309.189 0.186601 314.986 0.190099C320.815 0.193618 326.687 0.197162 332.484 0.200661C338.313 0.204179 344.185 0.207723 349.981 0.211222C355.81 0.21474 361.683 0.218285 367.479 0.221783C373.308 0.225301 379.181 0.228846 384.977 0.232344C390.806 0.235862 396.679 0.239407 402.475 0.242905C408.304 0.246423 414.177 0.249968 417.021 0.251684L419.973 0.253466L419.962 18.695Z" fill="url(#paint0_linear)"/>
<defs>
<linearGradient id="paint0_linear" x1="419.478" y1="-1.15026" x2="419.456" y2="35.3109" gradientUnits="userSpaceOnUse">
<stop offset="0.567708" stop-color="#FFB94D"/>
<stop offset="1" stop-color="#F9C16C"/>
</linearGradient>
</defs>
</svg>
